<mxfile host="app.diagrams.net" modified="2023-04-24T18:17:03.754Z" agent="Mozilla/5.0 (Windows NT 10.0; Win64; x64) AppleWebKit/537.36 (KHTML, like Gecko) Chrome/111.0.0.0 Safari/537.36 OPR/97.0.0.0" etag="yeZCD6JLrP-nWAjMTC4M" version="21.2.1" type="github">
  <diagram name="Page-1" id="e7e014a7-5840-1c2e-5031-d8a46d1fe8dd">
    <mxGraphModel dx="886" dy="1380" grid="1" gridSize="10" guides="1" tooltips="1" connect="1" arrows="1" fold="1" page="1" pageScale="1" pageWidth="1169" pageHeight="826" background="none" math="0" shadow="0">
      <root>
        <mxCell id="0" />
        <mxCell id="1" parent="0" />
        <mxCell id="2" value="Student Registration System" style="swimlane;whiteSpace=wrap;sketch=1;curveFitting=1;jiggle=2;" parent="1" vertex="1">
          <mxGeometry x="20" y="-800" width="400" height="762" as="geometry" />
        </mxCell>
        <mxCell id="5" value="" style="ellipse;shape=startState;fillColor=#000000;strokeColor=#ff0000;" parent="2" vertex="1">
          <mxGeometry x="167.5" y="31" width="30" height="30" as="geometry" />
        </mxCell>
        <mxCell id="6" value="" style="edgeStyle=elbowEdgeStyle;elbow=horizontal;verticalAlign=bottom;endArrow=open;endSize=8;strokeColor=#FF0000;endFill=1;rounded=0;entryX=0.466;entryY=0.049;entryDx=0;entryDy=0;entryPerimeter=0;exitX=0.516;exitY=0.884;exitDx=0;exitDy=0;exitPerimeter=0;" parent="2" source="5" target="6QwdZqTsU-tDz358kY65-41" edge="1">
          <mxGeometry x="167.5" y="32" as="geometry">
            <mxPoint x="182.79032258064512" y="102" as="targetPoint" />
            <mxPoint x="181" y="60" as="sourcePoint" />
          </mxGeometry>
        </mxCell>
        <mxCell id="9" value="" style="endArrow=open;strokeColor=#FF0000;endFill=1;rounded=0;entryX=0.5;entryY=0;entryDx=0;entryDy=0;exitX=0.5;exitY=1;exitDx=0;exitDy=0;" parent="2" source="6QwdZqTsU-tDz358kY65-41" target="6QwdZqTsU-tDz358kY65-42" edge="1">
          <mxGeometry relative="1" as="geometry">
            <mxPoint x="183.43" y="120" as="sourcePoint" />
            <mxPoint x="183.43" y="180" as="targetPoint" />
          </mxGeometry>
        </mxCell>
        <mxCell id="6QwdZqTsU-tDz358kY65-41" value="Login Student ID" style="rounded=1;whiteSpace=wrap;html=1;" vertex="1" parent="2">
          <mxGeometry x="130.75" y="90" width="112.5" height="26" as="geometry" />
        </mxCell>
        <mxCell id="6QwdZqTsU-tDz358kY65-42" value="Start Registration" style="rounded=1;whiteSpace=wrap;html=1;" vertex="1" parent="2">
          <mxGeometry x="122" y="140" width="130" height="30" as="geometry" />
        </mxCell>
        <mxCell id="11" value="" style="endArrow=open;strokeColor=#FF0000;endFill=1;rounded=0;entryX=0.5;entryY=0;entryDx=0;entryDy=0;exitX=0.5;exitY=1;exitDx=0;exitDy=0;" parent="2" source="6QwdZqTsU-tDz358kY65-42" target="6QwdZqTsU-tDz358kY65-58" edge="1">
          <mxGeometry relative="1" as="geometry">
            <mxPoint x="182.18" y="209.9999999999999" as="sourcePoint" />
            <mxPoint x="187" y="200" as="targetPoint" />
          </mxGeometry>
        </mxCell>
        <mxCell id="6QwdZqTsU-tDz358kY65-58" value="Register Course" style="rounded=1;whiteSpace=wrap;html=1;" vertex="1" parent="2">
          <mxGeometry x="135.19" y="195" width="105.63" height="20" as="geometry" />
        </mxCell>
        <mxCell id="6QwdZqTsU-tDz358kY65-60" value="&#xa;&lt;span style=&quot;color: rgb(0, 0, 0); font-family: Helvetica; font-size: 12px; font-style: normal; font-variant-ligatures: normal; font-variant-caps: normal; font-weight: 400; letter-spacing: normal; orphans: 2; text-align: center; text-indent: 0px; text-transform: none; widows: 2; word-spacing: 0px; -webkit-text-stroke-width: 0px; background-color: rgb(251, 251, 251); text-decoration-thickness: initial; text-decoration-style: initial; text-decoration-color: initial; float: none; display: inline !important;&quot;&gt;check available courses in this semester&lt;/span&gt;&lt;br style=&quot;border-color: var(--border-color); color: rgb(0, 0, 0); font-family: Helvetica; font-size: 12px; font-style: normal; font-variant-ligatures: normal; font-variant-caps: normal; font-weight: 400; letter-spacing: normal; orphans: 2; text-align: center; text-indent: 0px; text-transform: none; widows: 2; word-spacing: 0px; -webkit-text-stroke-width: 0px; background-color: rgb(251, 251, 251); text-decoration-thickness: initial; text-decoration-style: initial; text-decoration-color: initial;&quot;&gt;&#xa;&#xa;" style="rounded=1;whiteSpace=wrap;html=1;" vertex="1" parent="2">
          <mxGeometry x="28.56" y="226" width="102.44" height="60" as="geometry" />
        </mxCell>
        <mxCell id="6QwdZqTsU-tDz358kY65-61" value="" style="rhombus;whiteSpace=wrap;html=1;" vertex="1" parent="2">
          <mxGeometry x="184" y="246" width="10" height="20" as="geometry" />
        </mxCell>
        <mxCell id="6QwdZqTsU-tDz358kY65-64" value="" style="endArrow=open;strokeColor=#FF0000;endFill=1;rounded=0;entryX=1;entryY=0.5;entryDx=0;entryDy=0;exitX=0;exitY=0.5;exitDx=0;exitDy=0;" edge="1" parent="2" source="6QwdZqTsU-tDz358kY65-61" target="6QwdZqTsU-tDz358kY65-60">
          <mxGeometry relative="1" as="geometry">
            <mxPoint x="180" y="259" as="sourcePoint" />
            <mxPoint x="130" y="255" as="targetPoint" />
          </mxGeometry>
        </mxCell>
        <mxCell id="6QwdZqTsU-tDz358kY65-66" value="&lt;font style=&quot;font-size: 8px;&quot;&gt;yes&lt;/font&gt;" style="text;html=1;strokeColor=none;fillColor=none;align=center;verticalAlign=middle;whiteSpace=wrap;rounded=0;" vertex="1" parent="2">
          <mxGeometry x="128.75" y="216" width="60" height="30" as="geometry" />
        </mxCell>
        <mxCell id="6QwdZqTsU-tDz358kY65-68" value="" style="endArrow=open;strokeColor=#FF0000;endFill=1;rounded=0;entryX=0.5;entryY=0;entryDx=0;entryDy=0;exitX=0.5;exitY=1;exitDx=0;exitDy=0;" edge="1" parent="2" source="6QwdZqTsU-tDz358kY65-60">
          <mxGeometry relative="1" as="geometry">
            <mxPoint x="79.07" y="265" as="sourcePoint" />
            <mxPoint x="80" y="312.5" as="targetPoint" />
          </mxGeometry>
        </mxCell>
        <mxCell id="6QwdZqTsU-tDz358kY65-70" value="Open user-course management page" style="rounded=1;whiteSpace=wrap;html=1;" vertex="1" parent="2">
          <mxGeometry x="10" y="308.5" width="140" height="36.5" as="geometry" />
        </mxCell>
        <mxCell id="6QwdZqTsU-tDz358kY65-71" value="" style="endArrow=open;strokeColor=#FF0000;endFill=1;rounded=0;entryX=0.5;entryY=0;entryDx=0;entryDy=0;exitX=0.478;exitY=0.981;exitDx=0;exitDy=0;exitPerimeter=0;" edge="1" parent="2" source="6QwdZqTsU-tDz358kY65-61" target="6QwdZqTsU-tDz358kY65-72">
          <mxGeometry relative="1" as="geometry">
            <mxPoint x="185" y="266" as="sourcePoint" />
            <mxPoint x="222.27999999999997" y="255.17999999999984" as="targetPoint" />
          </mxGeometry>
        </mxCell>
        <mxCell id="6QwdZqTsU-tDz358kY65-72" value="Generate Registration" style="rounded=1;whiteSpace=wrap;html=1;" vertex="1" parent="2">
          <mxGeometry x="136.18" y="424" width="105.63" height="29" as="geometry" />
        </mxCell>
        <mxCell id="6QwdZqTsU-tDz358kY65-59" value="" style="endArrow=open;strokeColor=#FF0000;endFill=1;rounded=0;exitX=0.506;exitY=1;exitDx=0;exitDy=0;exitPerimeter=0;entryX=0.5;entryY=0;entryDx=0;entryDy=0;" edge="1" parent="2" source="6QwdZqTsU-tDz358kY65-58" target="6QwdZqTsU-tDz358kY65-61">
          <mxGeometry relative="1" as="geometry">
            <mxPoint x="165.68" y="226" as="sourcePoint" />
            <mxPoint x="166" y="246" as="targetPoint" />
          </mxGeometry>
        </mxCell>
        <mxCell id="6QwdZqTsU-tDz358kY65-74" value="" style="endArrow=open;strokeColor=#FF0000;endFill=1;rounded=0;exitX=0.5;exitY=1;exitDx=0;exitDy=0;entryX=0.5;entryY=0;entryDx=0;entryDy=0;" edge="1" parent="2" target="6QwdZqTsU-tDz358kY65-75">
          <mxGeometry relative="1" as="geometry">
            <mxPoint x="80" y="349" as="sourcePoint" />
            <mxPoint x="78.375" y="372" as="targetPoint" />
          </mxGeometry>
        </mxCell>
        <mxCell id="6QwdZqTsU-tDz358kY65-79" style="edgeStyle=orthogonalEdgeStyle;rounded=0;orthogonalLoop=1;jettySize=auto;html=1;exitX=1;exitY=0.5;exitDx=0;exitDy=0;" edge="1" parent="2" source="6QwdZqTsU-tDz358kY65-75">
          <mxGeometry relative="1" as="geometry">
            <mxPoint x="134.61728395061732" y="386.3827160493827" as="targetPoint" />
          </mxGeometry>
        </mxCell>
        <mxCell id="6QwdZqTsU-tDz358kY65-75" value="Add/Drop Subject" style="rounded=1;whiteSpace=wrap;html=1;" vertex="1" parent="2">
          <mxGeometry x="21.15" y="372" width="117.85" height="29" as="geometry" />
        </mxCell>
        <mxCell id="6QwdZqTsU-tDz358kY65-76" value="" style="endArrow=open;strokeColor=#FF0000;endFill=1;rounded=0;exitX=0.5;exitY=1;exitDx=0;exitDy=0;entryX=0;entryY=0.5;entryDx=0;entryDy=0;" edge="1" parent="2" source="6QwdZqTsU-tDz358kY65-75" target="6QwdZqTsU-tDz358kY65-72">
          <mxGeometry relative="1" as="geometry">
            <mxPoint x="79.20000000000005" y="375" as="sourcePoint" />
            <mxPoint x="79.20000000000005" y="405" as="targetPoint" />
            <Array as="points">
              <mxPoint x="80" y="439" />
            </Array>
          </mxGeometry>
        </mxCell>
        <mxCell id="6QwdZqTsU-tDz358kY65-80" value="&lt;font style=&quot;font-size: 8px;&quot;&gt;Add/Drop Subject&lt;/font&gt;" style="text;html=1;strokeColor=none;fillColor=none;align=center;verticalAlign=middle;whiteSpace=wrap;rounded=0;" vertex="1" parent="2">
          <mxGeometry x="190" y="245" width="91.25" height="17" as="geometry" />
        </mxCell>
        <mxCell id="6QwdZqTsU-tDz358kY65-91" value="no" style="text;html=1;strokeColor=none;fillColor=none;align=center;verticalAlign=middle;whiteSpace=wrap;rounded=0;" vertex="1" parent="2">
          <mxGeometry x="170" y="288" width="60" height="30" as="geometry" />
        </mxCell>
        <mxCell id="6QwdZqTsU-tDz358kY65-93" value="" style="ellipse;shape=startState;fillColor=#000000;strokeColor=#ff0000;" vertex="1" parent="2">
          <mxGeometry x="174" y="571" width="30" height="30" as="geometry" />
        </mxCell>
        <mxCell id="6QwdZqTsU-tDz358kY65-95" value="" style="edgeStyle=elbowEdgeStyle;elbow=horizontal;verticalAlign=bottom;endArrow=open;endSize=8;strokeColor=#FF0000;endFill=1;rounded=0;entryX=0.466;entryY=0.049;entryDx=0;entryDy=0;entryPerimeter=0;exitX=0.5;exitY=1;exitDx=0;exitDy=0;" edge="1" parent="2" source="6QwdZqTsU-tDz358kY65-72">
          <mxGeometry x="-76.44" y="450" as="geometry">
            <mxPoint x="189.06" y="497" as="targetPoint" />
            <mxPoint x="189.995" y="449" as="sourcePoint" />
          </mxGeometry>
        </mxCell>
        <mxCell id="6QwdZqTsU-tDz358kY65-96" value="Sign Out" style="rounded=1;whiteSpace=wrap;html=1;" vertex="1" parent="2">
          <mxGeometry x="134.18" y="498" width="105.63" height="29" as="geometry" />
        </mxCell>
        <mxCell id="6QwdZqTsU-tDz358kY65-97" value="" style="edgeStyle=elbowEdgeStyle;elbow=horizontal;verticalAlign=bottom;endArrow=open;endSize=8;strokeColor=#FF0000;endFill=1;rounded=0;entryX=0.466;entryY=0.049;entryDx=0;entryDy=0;entryPerimeter=0;exitX=0.5;exitY=1;exitDx=0;exitDy=0;" edge="1" parent="2">
          <mxGeometry x="-326.75" y="540" as="geometry">
            <mxPoint x="188.75" y="575" as="targetPoint" />
            <mxPoint x="189.69" y="527" as="sourcePoint" />
          </mxGeometry>
        </mxCell>
      </root>
    </mxGraphModel>
  </diagram>
</mxfile>
